<svg width="72" height="79" viewBox="0 0 72 79" fill="none" xmlns="http://www.w3.org/2000/svg">
<path d="M67.2203 40.7871V74.1867C67.2203 75.7598 66.0021 76.97 64.4185 76.97H8.01666C6.43303 76.97 5.21484 75.7598 5.21484 74.1867V40.7871" stroke="white" stroke-width="4"/>
<path fill-rule="evenodd" clip-rule="evenodd" d="M69.6602 37.8824C69.6602 39.4556 68.442 40.6657 66.8583 40.6657H5.46197C3.87834 40.6657 2.66016 39.4556 2.66016 37.8824V25.4181C2.66016 23.8449 3.87834 22.6348 5.46197 22.6348H66.8583C68.442 22.6348 69.6602 23.8449 69.6602 25.4181V37.8824Z" stroke="white" stroke-width="4"/>
<path fill-rule="evenodd" clip-rule="evenodd" d="M54.185 13.7988C51.505 16.461 39.3232 24.2059 36.5214 21.5436C33.8414 18.8813 41.6377 6.659 44.3177 3.99671C46.9977 1.33443 51.3832 1.33443 54.185 3.99671C56.865 6.659 56.865 11.1365 54.185 13.7988Z" stroke="#FBD846" stroke-width="4"/>
<path fill-rule="evenodd" clip-rule="evenodd" d="M18.0139 13.7988C20.6939 16.4611 32.9975 24.327 35.6775 21.6647C38.3575 19.0024 30.5612 6.78009 27.7594 4.11781C25.0794 1.45552 20.6939 1.45552 18.0139 4.11781C15.3339 6.65908 15.3339 11.0155 18.0139 13.7988Z" stroke="#FBD846" stroke-width="4"/>
<path d="M27.7598 32.4339C27.7598 32.4339 29.587 26.8673 36.6525 24.084V76.8456" stroke="#FBD846" stroke-width="4"/>
<path d="M36.1562 24.2051C36.1562 24.2051 38.9581 33.8861 48.7035 35.3383" stroke="#FBD846" stroke-width="4"/>
</svg>
